<svg width="24" height="25" viewBox="0 0 24 25" fill="none" xmlns="http://www.w3.org/2000/svg">
<ellipse cx="12.001" cy="15.082" rx="2" ry="2" fill="#FEFEFE"/>
<path d="M4.5 13.982C4.5 12.6834 4.5 12.0341 4.69728 11.5168C5.00244 10.7165 5.63451 10.0845 6.43477 9.77931C6.95209 9.58203 7.60139 9.58203 8.9 9.58203H15.1C16.3986 9.58203 17.0479 9.58203 17.5652 9.77931C18.3655 10.0845 18.9976 10.7165 19.3027 11.5168C19.5 12.0341 19.5 12.6834 19.5 13.982V13.982C19.5 15.9299 19.5 16.9039 19.2041 17.6799C18.7463 18.8803 17.7982 19.8284 16.5979 20.2861C15.8219 20.582 14.8479 20.582 12.9 20.582H11.1C9.15209 20.582 8.17813 20.582 7.40215 20.2861C6.20176 19.8284 5.25367 18.8803 4.79591 17.6799C4.5 16.9039 4.5 15.9299 4.5 13.982V13.982Z" stroke="#FEFEFE" stroke-width="1.50287"/>
<path d="M16.5 9.58252V8.08252C16.5 5.59724 14.4853 3.58252 12 3.58252V3.58252C9.51472 3.58252 7.5 5.59724 7.5 8.08252V9.58252" stroke="#FEFEFE" stroke-width="1.50287" stroke-linecap="round"/>
</svg>
