<svg width="24" height="25" viewBox="0 0 24 25" fill="none" xmlns="http://www.w3.org/2000/svg">
<path d="M13.1716 3.97949H9C7.11438 3.97949 6.17157 3.97949 5.58579 4.56528C5 5.15107 5 6.09387 5 7.97949V17.9795C5 19.8651 5 20.8079 5.58579 21.3937C6.17157 21.9795 7.11438 21.9795 9 21.9795H15C16.8856 21.9795 17.8284 21.9795 18.4142 21.3937C19 20.8079 19 19.8651 19 17.9795V9.80792C19 9.39917 19 9.19479 18.9239 9.01102C18.8478 8.82725 18.7032 8.68274 18.4142 8.39371L14.5858 4.56528C14.2968 4.27625 14.1522 4.13173 13.9685 4.05561C13.7847 3.97949 13.5803 3.97949 13.1716 3.97949Z" stroke="#FEFEFE" stroke-width="1.80345"/>
<path d="M9 13.979L15 13.979" stroke="#FEFEFE" stroke-width="1.80345" stroke-linecap="round"/>
<path d="M9 17.9795L13 17.9795" stroke="#FEFEFE" stroke-width="1.80345" stroke-linecap="round"/>
<path d="M13 3.97949V7.97949C13 8.9223 13 9.39371 13.2929 9.6866C13.5858 9.97949 14.0572 9.97949 15 9.97949H19" stroke="#FEFEFE" stroke-width="1.80345"/>
</svg>
