<svg width="28" height="28" viewBox="0 0 28 28" fill="none" xmlns="http://www.w3.org/2000/svg">
<rect width="28" height="28" rx="14" fill="#FEFEFE"/>
<path d="M19.0713 9.25432H19.6298C19.834 9.25432 19.9996 9.42613 19.9996 9.63807V17.6695C19.9996 17.8814 19.834 18.0532 19.6298 18.0532H14.702M13.2959 10.131V9.63807C13.2959 9.42613 13.4615 9.25432 13.6657 9.25432H14.2242M14.2242 9.25432L15.1413 10.5872C15.3039 10.847 15.6667 10.8584 15.8442 10.6092L16.3288 9.92879L15.0027 8.13981L14.2242 9.25432ZM13.2959 13.5281V11.0432M15.0025 8.13969C15.0317 8.09651 15.0705 8.06127 15.1156 8.03696C15.1607 8.01264 15.2108 7.99996 15.2616 8H18.0339C18.0847 7.99996 18.1349 8.01265 18.18 8.03699C18.2251 8.06134 18.2639 8.09662 18.2931 8.13984" stroke="#0081FF" stroke-width="0.5" stroke-miterlimit="10" stroke-linecap="round" stroke-linejoin="round"/>
<path d="M18.2929 8.13983L16.9668 9.92881L17.4514 10.6092C17.6289 10.8584 17.9917 10.847 18.1543 10.5872L19.0714 9.25436L18.2929 8.13983Z" stroke="#0081FF" stroke-width="0.5" stroke-miterlimit="10" stroke-linecap="round" stroke-linejoin="round"/>
<path d="M16.6483 11.6663L15.8447 10.6092L16.3294 9.92877L16.6483 10.3591L16.9673 9.92877L17.4519 10.6092L16.6483 11.6663ZM16.6483 11.6663V18.0532M14.4812 15.188L13.7346 18.0532H9.17245M9.17245 18.0532L8.42285 15.1764M9.17245 18.0532H13.7346L14.3394 19.4772C14.444 19.7234 14.2701 20 14.0107 20H10.8471M9.17245 18.0532L8.56767 19.4772C8.46308 19.7234 8.6369 20 8.89628 20H9.94069M18.9564 14.4821L18.5551 14.6893C18.4871 14.7245 18.4121 14.7427 18.3361 14.7427C18.2601 14.7427 18.1851 14.7245 18.117 14.6893L17.7158 14.4821C17.6555 14.451 17.6049 14.4031 17.5695 14.3438C17.5341 14.2845 17.5153 14.2161 17.5153 14.1463V12.7936C17.5153 12.6241 17.6477 12.4866 17.8111 12.4866H18.861C19.0244 12.4866 19.1568 12.6241 19.1568 12.7936V14.1463C19.1568 14.2161 19.1381 14.2845 19.1027 14.3438C19.0672 14.4031 19.0166 14.451 18.9564 14.4821Z" stroke="#0081FF" stroke-width="0.5" stroke-miterlimit="10" stroke-linecap="round" stroke-linejoin="round"/>
<path d="M9.41192 15.5962C8.63214 15.5962 8 14.9403 8 14.1312C8 13.7981 8.26026 13.5281 8.58131 13.5281H9.60056C9.96771 13.5281 10.3291 13.6225 10.6525 13.803C10.9758 13.9834 11.251 14.2442 11.4533 14.5621M13.4948 15.5962C14.2746 15.5962 14.9067 14.9403 14.9067 14.1312C14.9067 13.7981 14.6464 13.5281 14.3254 13.5281H13.3061C12.939 13.5281 12.5776 13.6225 12.2542 13.803C11.9309 13.9834 11.6557 14.2442 11.4534 14.5621M8.82942 13.5281V11.6518M14.0773 13.5281V11.6518" stroke="#0081FF" stroke-width="0.5" stroke-miterlimit="10" stroke-linecap="round" stroke-linejoin="round"/>
</svg>
