<svg width="13" height="12" viewBox="0 0 13 12" fill="none" xmlns="http://www.w3.org/2000/svg">
<path d="M4.75 10.75H8.25" stroke="#D3D3D3" stroke-linecap="round"/>
<path d="M6.5 10.5V8.5" stroke="#D3D3D3" stroke-linecap="round"/>
<path d="M3.5 4.5L9.5 4.5V5C9.5 6.65685 8.15685 8 6.5 8C4.84315 8 3.5 6.65685 3.5 5V4.5Z" stroke="#D3D3D3" stroke-linecap="round"/>
<path d="M6.01924 5.86264C5.94338 6.12816 6.09712 6.4049 6.36264 6.48076C6.62816 6.55662 6.9049 6.40288 6.98076 6.13736L6.01924 5.86264ZM7.23051 3.4432L6.75617 3.28509L6.75274 3.29539L6.74975 3.30584L7.23051 3.4432ZM8.41078 2.13569L8.59648 2.59993V2.59993L8.41078 2.13569ZM7.23051 3.4432L7.70486 3.60131L7.70829 3.59101L7.71128 3.58056L7.23051 3.4432ZM7.58448 2.57626L7.95563 2.91129H7.95563L7.58448 2.57626ZM6.98076 6.13736L7.71128 3.58056L6.74975 3.30584L6.01924 5.86264L6.98076 6.13736ZM8.59648 2.59993L10.1857 1.96424L9.8143 1.03576L8.22509 1.67145L8.59648 2.59993ZM7.70486 3.60131L7.70486 3.60131L6.75617 3.28508L6.75617 3.28509L7.70486 3.60131ZM7.71128 3.58056C7.8571 3.07018 7.89613 2.9772 7.95563 2.91129L7.21333 2.24122C6.96187 2.51979 6.86858 2.88994 6.74975 3.30584L7.71128 3.58056ZM8.22509 1.67145C7.82348 1.83209 7.46478 1.96266 7.21333 2.24122L7.95563 2.91129C8.01513 2.84538 8.10364 2.79706 8.59648 2.59993L8.22509 1.67145Z" fill="#D3D3D3"/>
</svg>
