<svg width="64" height="64" viewBox="0 0 64 64" fill="none" xmlns="http://www.w3.org/2000/svg">
<circle cx="32" cy="32" r="32" fill="#111111"/>
<path d="M32.7666 37.52L33.5333 51.9333H11.2999C10.8936 51.9321 10.5043 51.7702 10.217 51.4829C9.92975 51.1956 9.76781 50.8063 9.7666 50.4V45.0333C9.77247 43.0018 10.5821 41.0552 12.0186 39.6187C13.4551 38.1822 15.4017 37.3725 17.4333 37.3667H31.2333C31.7482 37.3672 32.2618 37.4185 32.7666 37.52Z" fill="#477492"/>
<path d="M54.2333 37.3667V52.7C54.2333 53.1067 54.0717 53.4967 53.7842 53.7842C53.4966 54.0718 53.1066 54.2333 52.6999 54.2333H34.2999C33.8936 54.2321 33.5043 54.0702 33.217 53.7829C32.9298 53.4956 32.7678 53.1063 32.7666 52.7V37.3667L33.5333 36.6H53.4666L54.2333 37.3667Z" fill="#D9DDE3"/>
<path d="M54.2333 34.3V37.3667H32.7666V34.3C32.7678 33.8937 32.9298 33.5044 33.217 33.2171C33.5043 32.9298 33.8936 32.7679 34.2999 32.7667H52.6999C53.1062 32.7679 53.4955 32.9298 53.7828 33.2171C54.0701 33.5044 54.2321 33.8937 54.2333 34.3Z" fill="#EC5E69"/>
<path d="M44.0268 41.4722L45.3401 43.3773L47.6294 43.9799C47.7298 44.0038 47.8226 44.0529 47.8987 44.1226C47.9749 44.1923 48.032 44.2804 48.0647 44.3783C48.0973 44.4763 48.1044 44.581 48.0852 44.6825C48.0661 44.784 48.0213 44.8789 47.9552 44.9582L46.4794 46.7215L46.5867 48.9878C46.589 49.091 46.5659 49.1931 46.5195 49.2853C46.4731 49.3775 46.4048 49.4568 46.3205 49.5164C46.2362 49.576 46.1386 49.6139 46.0363 49.627C45.9339 49.64 45.8299 49.6277 45.7334 49.5912L43.5001 48.79L41.2637 49.5912C41.1672 49.6277 41.0632 49.64 40.9608 49.627C40.8585 49.6139 40.7609 49.576 40.6766 49.5164C40.5924 49.4568 40.524 49.3775 40.4776 49.2853C40.4312 49.1931 40.4081 49.091 40.4104 48.9878L40.5178 46.7215L39.0419 44.9582C38.9758 44.8789 38.9311 44.784 38.9119 44.6825C38.8927 44.581 38.8998 44.4763 38.9324 44.3783C38.9651 44.2804 39.0222 44.1923 39.0984 44.1226C39.1746 44.0529 39.2673 44.0038 39.3678 43.9799L41.6601 43.3773L42.9765 41.4722C43.0363 41.3888 43.1151 41.3208 43.2065 41.2739C43.2978 41.227 43.399 41.2026 43.5016 41.2026C43.6043 41.2026 43.7055 41.227 43.7968 41.2739C43.8881 41.3208 43.967 41.3888 44.0268 41.4722Z" fill="#FAB344"/>
<path d="M28.1667 32.7843V38.1333H20.5V32.7667L28.1667 32.7843Z" fill="#AF805F"/>
<path d="M14.3667 21.3487V16.6667C14.3667 14.8367 15.0937 13.0816 16.3877 11.7876C17.6817 10.4936 19.4367 9.76666 21.2667 9.76666H30.5173C30.6516 9.7665 30.7832 9.80431 30.8969 9.87573C31.0106 9.94714 31.1019 10.0493 31.16 10.1703C31.2182 10.2913 31.241 10.4263 31.2258 10.5597C31.2105 10.6932 31.1579 10.8195 31.0739 10.9243L28.9334 13.6H31.2334C32.0467 13.6 32.8267 13.9231 33.4018 14.4982C33.9769 15.0733 34.3 15.8533 34.3 16.6667V21.3487H14.3667Z" fill="#5E4B3F"/>
<path d="M24.3335 38.1333C24.3335 38.1333 22.0335 38.9 21.2669 40.4333C21.2669 40.4333 18.2002 39.5379 18.2002 37.3667C18.788 36.6129 19.608 36.0739 20.5332 35.8333C20.5332 35.8333 21.2669 38.1333 24.3335 38.1333ZM24.3335 38.1333C24.3335 38.1333 26.6335 38.9 27.4002 40.4333C27.4002 40.4333 30.4669 39.5379 30.4669 37.3667C29.879 36.6129 29.059 36.0739 28.1339 35.8333C28.1339 35.8333 27.4002 38.1333 24.3335 38.1333Z" fill="#D9DDE3"/>
<path d="M34.2998 21.351V24.3333C34.2998 24.9433 34.0575 25.5283 33.6262 25.9597C33.1949 26.391 32.6098 26.6333 31.9998 26.6333C31.9511 27.9639 31.6247 29.2697 31.0415 30.4667C30.0832 32.3833 28.1665 34.3 24.3332 34.3C16.6665 34.3 16.6665 26.6333 16.6665 26.6333C16.0565 26.6333 15.4715 26.391 15.0402 25.9597C14.6088 25.5283 14.3665 24.9433 14.3665 24.3333V21.351C14.3592 20.9773 14.4834 20.6129 14.7174 20.3214C14.9514 20.0299 15.2804 19.8299 15.6469 19.7563C15.8664 19.7196 16.0913 19.7311 16.306 19.7901C16.5206 19.849 16.7199 19.954 16.8898 20.0977C17.0598 20.2415 17.1965 20.4205 17.2903 20.6223C17.3841 20.8242 17.4329 21.0441 17.4332 21.2667C17.4362 20.6581 17.6527 20.07 18.045 19.6048C18.4374 19.1396 18.9806 18.8269 19.5799 18.7213C21.142 18.4556 22.6143 17.8077 23.8655 16.8353C23.9975 16.7275 24.1627 16.6685 24.3332 16.6685C24.5036 16.6685 24.6689 16.7275 24.8008 16.8353C26.0521 17.8077 27.5243 18.4556 29.0865 18.7213C29.688 18.8222 30.2341 19.1336 30.6273 19.5998C31.0205 20.066 31.2352 20.6568 31.2332 21.2667C31.2335 21.0441 31.2822 20.8242 31.3761 20.6223C31.4699 20.4205 31.6065 20.2415 31.7765 20.0977C31.9465 19.954 32.1457 19.849 32.3604 19.7901C32.5751 19.7311 32.8 19.7196 33.0195 19.7563C33.386 19.8299 33.7149 20.0299 33.949 20.3214C34.183 20.6129 34.3072 20.9773 34.2998 21.351Z" fill="#CE9870"/>
<path d="M47.8277 43.2386L45.8129 42.708L44.6576 41.0367C44.5275 40.8504 44.3544 40.6982 44.1529 40.5932C43.9514 40.4881 43.7275 40.4333 43.5003 40.4333C43.2731 40.4333 43.0492 40.4881 42.8477 40.5932C42.6462 40.6982 42.4731 40.8504 42.343 41.0367L41.1869 42.708L39.1728 43.2386C38.9457 43.2968 38.737 43.4118 38.5665 43.5727C38.3959 43.7336 38.269 43.9352 38.1976 44.1586C38.1274 44.3778 38.114 44.6112 38.1586 44.8371C38.2033 45.0629 38.3046 45.2737 38.4529 45.4496L39.7371 46.9876L39.6443 48.9564C39.6344 49.1819 39.6802 49.4065 39.7777 49.6101C39.8751 49.8138 40.0213 49.9903 40.2032 50.124C40.3903 50.2619 40.6085 50.3516 40.8385 50.3851C41.0685 50.4187 41.3032 50.3951 41.5219 50.3164L43.4999 49.608L45.4771 50.3164C45.6959 50.3957 45.9308 50.4196 46.1611 50.3861C46.3913 50.3525 46.6096 50.2625 46.7966 50.124C46.9787 49.9901 47.125 49.8133 47.2224 49.6094C47.3199 49.4055 47.3656 49.1807 47.3555 48.9548L47.2627 46.9868L48.5461 45.4496C48.6948 45.2737 48.7963 45.0628 48.841 44.8368C48.8858 44.6108 48.8725 44.3772 48.8022 44.1578C48.7308 43.9347 48.604 43.7333 48.4335 43.5725C48.2631 43.4117 48.0547 43.2968 47.8277 43.2386ZM45.8942 46.2332C45.7712 46.3806 45.708 46.5688 45.7171 46.7606L45.8137 48.8076L43.7583 48.0716C43.5912 48.0118 43.4086 48.0118 43.2415 48.0716L41.1861 48.8076L41.2827 46.7606C41.2918 46.5688 41.2286 46.3806 41.1056 46.2332L39.7923 44.6615L41.8524 44.1187C42.0292 44.0716 42.1834 43.9629 42.287 43.812L43.4999 42.0594L44.7128 43.8128C44.8164 43.9636 44.9706 44.0724 45.1475 44.1195L47.2075 44.6623L45.8942 46.2332Z" fill="#373737"/>
<path d="M51.9333 32H51.1667V31.2333C51.1667 31.03 51.0859 30.835 50.9421 30.6912C50.7983 30.5474 50.6033 30.4667 50.4 30.4667C50.1967 30.4667 50.0017 30.5474 49.8579 30.6912C49.7141 30.835 49.6333 31.03 49.6333 31.2333V32H37.3667V31.2333C37.3667 31.03 37.2859 30.835 37.1421 30.6912C36.9983 30.5474 36.8033 30.4667 36.6 30.4667C36.3967 30.4667 36.2017 30.5474 36.0579 30.6912C35.9141 30.835 35.8333 31.03 35.8333 31.2333V32H35.0667C34.2533 32 33.4733 32.3231 32.8982 32.8982C32.3231 33.4733 32 34.2533 32 35.0667V36.6383C31.7439 36.6153 31.4879 36.6 31.2333 36.6H30.85C30.3264 36.0164 29.6685 35.5691 28.9333 35.2967V33.899C30.1387 33.1546 31.1078 32.0832 31.7278 30.8094C32.2625 29.7118 32.5998 28.5286 32.7245 27.3141C33.392 27.1507 33.9854 26.7683 34.41 26.228C34.8346 25.6876 35.0658 25.0205 35.0667 24.3333V16.6667C35.0654 15.6504 34.6612 14.6761 33.9426 13.9574C33.2239 13.2388 32.2496 12.8346 31.2333 12.8333H30.528L31.6719 11.4035C31.8461 11.186 31.9553 10.9237 31.987 10.6468C32.0186 10.3699 31.9714 10.0897 31.8507 9.83852C31.73 9.58731 31.5408 9.37532 31.3049 9.22696C31.069 9.07861 30.796 8.99993 30.5173 9H21.2667C19.234 9.00223 17.2853 9.81068 15.848 11.248C14.4107 12.6853 13.6022 14.634 13.6 16.6667C13.6 16.87 13.6808 17.065 13.8246 17.2088C13.9683 17.3526 14.1633 17.4333 14.3667 17.4333C14.57 17.4333 14.765 17.3526 14.9088 17.2088C15.0526 17.065 15.1333 16.87 15.1333 16.6667C15.1352 15.0406 15.7819 13.4816 16.9318 12.3318C18.0816 11.1819 19.6406 10.5352 21.2667 10.5333H30.4046L28.5646 12.8333H25.8667C25.6633 12.8333 25.4683 12.9141 25.3246 13.0579C25.1808 13.2017 25.1 13.3967 25.1 13.6C25.1 13.8033 25.1808 13.9983 25.3246 14.1421C25.4683 14.2859 25.6633 14.3667 25.8667 14.3667H31.2333C31.8433 14.3667 32.4283 14.609 32.8597 15.0403C33.291 15.4717 33.5333 16.0567 33.5333 16.6667V19.1031C33.4057 19.0565 33.2741 19.0218 33.14 18.9996C32.5412 18.8998 31.9272 19.0415 31.4327 19.3937C31.1803 19.0171 30.8535 18.6962 30.4725 18.4505C30.0914 18.2049 29.6642 18.0398 29.217 17.9654C27.784 17.7187 26.433 17.1255 25.2817 16.2373C25.0119 16.0188 24.6749 15.9001 24.3278 15.9015C23.9806 15.9029 23.6445 16.0243 23.3765 16.245C22.2292 17.1279 20.884 17.7179 19.4573 17.9639C18.6789 18.095 17.9724 18.4985 17.464 19.1024C17.3834 19.1967 17.3079 19.2952 17.2378 19.3975C16.7402 19.045 16.124 18.9021 15.522 18.9996C14.9768 19.104 14.4856 19.3967 14.1343 19.8265C13.783 20.2563 13.5939 20.7959 13.6 21.351V24.3333C13.6013 25.0215 13.8333 25.6894 14.2591 26.2301C14.6848 26.7708 15.2796 27.153 15.9483 27.3157C16.1093 28.7555 16.8077 32.1073 19.7333 33.8937V35.2967C18.9981 35.5691 18.3403 36.0164 17.8167 36.6H17.4333C15.1975 36.6026 13.054 37.492 11.473 39.073C9.89199 40.654 9.00264 42.7975 9 45.0333L9 50.4C9 51.01 9.24232 51.595 9.67365 52.0263C10.105 52.4577 10.69 52.7 11.3 52.7H32.1089C32.2783 53.3564 32.6605 53.9381 33.1957 54.3542C33.7308 54.7704 34.3888 54.9975 35.0667 55H51.9333C52.7467 55 53.5267 54.6769 54.1018 54.1018C54.6769 53.5267 55 52.7467 55 51.9333V35.0667C55 34.2533 54.6769 33.4733 54.1018 32.8982C53.5267 32.3231 52.7467 32 51.9333 32ZM35.0667 33.5333H35.8333V34.3C35.8333 34.5033 35.9141 34.6983 36.0579 34.8421C36.2017 34.9859 36.3967 35.0667 36.6 35.0667C36.8033 35.0667 36.9983 34.9859 37.1421 34.8421C37.2859 34.6983 37.3667 34.5033 37.3667 34.3V33.5333H49.6333V34.3C49.6333 34.5033 49.7141 34.6983 49.8579 34.8421C50.0017 34.9859 50.1967 35.0667 50.4 35.0667C50.6033 35.0667 50.7983 34.9859 50.9421 34.8421C51.0859 34.6983 51.1667 34.5033 51.1667 34.3V33.5333H51.9333C52.34 33.5333 52.73 33.6949 53.0176 33.9824C53.3051 34.27 53.4667 34.66 53.4667 35.0667V36.6H33.5333V35.0667C33.5333 34.66 33.6949 34.27 33.9824 33.9824C34.27 33.6949 34.66 33.5333 35.0667 33.5333ZM29.6839 37.5798C29.5352 38.5535 28.3967 39.1936 27.7082 39.4965C27.3897 39.0972 27.0153 38.7461 26.5965 38.4538C27.3881 38.1015 28.0558 37.5198 28.5132 36.784C28.9578 36.9588 29.3578 37.2307 29.6839 37.5798ZM17.4333 26.6333C17.4333 26.43 17.3526 26.235 17.2088 26.0912C17.065 25.9474 16.87 25.8667 16.6667 25.8667C16.26 25.8667 15.87 25.7051 15.5824 25.4176C15.2949 25.13 15.1333 24.74 15.1333 24.3333V21.351C15.1269 21.1599 15.1864 20.9724 15.3019 20.82C15.4173 20.6675 15.5817 20.5594 15.7674 20.5138C15.8112 20.5059 15.8555 20.5013 15.9 20.5C16.0009 20.4993 16.1009 20.5186 16.1942 20.5569C16.2876 20.5952 16.3724 20.6516 16.4437 20.723C16.515 20.7943 16.5715 20.8791 16.6098 20.9724C16.648 21.0658 16.6674 21.1658 16.6667 21.2667C16.6667 21.47 16.7474 21.665 16.8912 21.8088C17.035 21.9526 17.23 22.0333 17.4333 22.0333C17.6367 22.0333 17.8317 21.9526 17.9754 21.8088C18.1192 21.665 18.2 21.47 18.2 21.2667C18.1987 20.8383 18.3517 20.4239 18.6309 20.099C18.9052 19.7698 19.2879 19.5491 19.7103 19.4765C21.3941 19.1981 22.9781 18.4916 24.3103 17.4249C25.664 18.4855 27.2614 19.191 28.9571 19.4773C29.3803 19.5476 29.7646 19.7663 30.0412 20.0941C30.3178 20.422 30.4686 20.8377 30.4667 21.2667C30.4667 21.47 30.5474 21.665 30.6912 21.8088C30.835 21.9526 31.03 22.0333 31.2333 22.0333C31.4367 22.0333 31.6317 21.9526 31.7754 21.8088C31.9192 21.665 32 21.47 32 21.2667C32.0004 21.1553 32.0251 21.0453 32.0723 20.9444C32.1196 20.8435 32.1882 20.7541 32.2735 20.6824C32.3588 20.6107 32.4587 20.5585 32.5663 20.5294C32.6738 20.5003 32.7864 20.495 32.8962 20.5138C33.0826 20.5587 33.2477 20.6665 33.3638 20.819C33.4798 20.9715 33.5397 21.1594 33.5333 21.351V24.3333C33.5333 24.74 33.3718 25.13 33.0842 25.4176C32.7967 25.7051 32.4067 25.8667 32 25.8667C31.7967 25.8667 31.6017 25.9474 31.4579 26.0912C31.3141 26.235 31.2333 26.43 31.2333 26.6333C31.1831 27.8452 30.8843 29.0339 30.3555 30.1255C29.2247 32.3833 27.1984 33.5333 24.3333 33.5333C17.5414 33.5333 17.4333 26.9132 17.4333 26.6333ZM24.3333 35.0667C25.374 35.0782 26.4096 34.921 27.4 34.6013V35.6087C27.3678 35.7022 26.7545 37.3667 24.3333 37.3667C21.9122 37.3667 21.2996 35.703 21.2667 35.6079V34.599C22.257 34.9192 23.2926 35.0771 24.3333 35.0667ZM20.1527 36.7825C20.6101 37.5183 21.2778 38.1 22.0694 38.4523C21.6506 38.7445 21.2762 39.0957 20.9577 39.4949C20.2677 39.1929 19.1307 38.5535 18.982 37.5783C19.3081 37.2291 19.7081 36.9572 20.1527 36.7825ZM10.5333 50.4V45.0333C10.5354 43.204 11.263 41.4501 12.5565 40.1565C13.8501 38.863 15.604 38.1354 17.4333 38.1333H17.5399C18.1072 40.28 20.9194 41.1302 21.052 41.1693C21.2244 41.2197 21.4091 41.2079 21.5737 41.136C21.7384 41.0642 21.8726 40.9367 21.9528 40.776C22.5333 39.9313 23.3668 39.2925 24.3333 38.9514C25.2993 39.2916 26.1318 39.9307 26.71 40.776C26.7903 40.9367 26.9245 41.0642 27.0891 41.136C27.2537 41.2079 27.4384 41.2197 27.6108 41.1693C27.7435 41.1302 30.5556 40.2777 31.1229 38.1333H31.2333C31.4895 38.1346 31.7455 38.15 32 38.1793V51.1667H11.3C11.0967 51.1667 10.9017 51.0859 10.7579 50.9421C10.6141 50.7983 10.5333 50.6033 10.5333 50.4ZM51.9333 53.4667H35.0667C34.66 53.4667 34.27 53.3051 33.9824 53.0176C33.6949 52.73 33.5333 52.34 33.5333 51.9333V38.1333H53.4667V51.9333C53.4667 52.34 53.3051 52.73 53.0176 53.0176C52.73 53.3051 52.34 53.4667 51.9333 53.4667Z" fill="#373737"/>
</svg>
