<svg width="24" height="25" viewBox="0 0 24 25" fill="none" xmlns="http://www.w3.org/2000/svg">
<path fill-rule="evenodd" clip-rule="evenodd" d="M12.9992 3.84131C12.9992 3.28902 12.5515 2.84131 11.9992 2.84131C11.4469 2.84131 10.9992 3.28902 10.9992 3.84131V4.59131H10.4418C8.21672 4.59131 6.37512 6.32132 6.23622 8.54205L6.01522 12.0755C5.93096 13.4227 5.47867 14.721 4.70761 15.8289C4.01093 16.8299 4.63115 18.2125 5.84208 18.3578L9.24921 18.7667V19.8413C9.24921 21.3601 10.4804 22.5913 11.9992 22.5913C13.518 22.5913 14.7492 21.3601 14.7492 19.8413V18.7667L18.1563 18.3578C19.3673 18.2125 19.9875 16.8299 19.2908 15.8289C18.5197 14.721 18.0674 13.4227 17.9832 12.0755L17.7622 8.54205C17.6233 6.32132 15.7817 4.59131 13.5566 4.59131H12.9992V3.84131ZM10.4418 6.09131C9.00879 6.09131 7.82275 7.20548 7.7333 8.63569L7.5123 12.1691C7.4109 13.7903 6.86664 15.3525 5.9388 16.6857C5.88844 16.7581 5.93327 16.858 6.0208 16.8685L9.75846 17.317C11.2469 17.4957 12.7515 17.4957 14.2399 17.317L17.9776 16.8685C18.0651 16.858 18.11 16.7581 18.0596 16.6857C17.1318 15.3525 16.5875 13.7903 16.4861 12.1691L16.2651 8.63569C16.1757 7.20548 14.9896 6.09131 13.5566 6.09131H10.4418ZM11.9992 21.0913C11.3089 21.0913 10.7492 20.5317 10.7492 19.8413V19.0913H13.2492V19.8413C13.2492 20.5317 12.6896 21.0913 11.9992 21.0913Z" fill="#FEFEFE"/>
</svg>
