<svg width="24" height="24" viewBox="0 0 24 24" fill="none" xmlns="http://www.w3.org/2000/svg">
<path fill-rule="evenodd" clip-rule="evenodd" d="M19.1833 4.91444L11.9996 4.75195L4.8159 4.91444C3.48474 4.94455 2.35764 5.90517 2.11696 7.21474C1.53523 10.3798 1.53523 13.6245 2.11696 16.7896C2.35764 18.0991 3.48474 19.0597 4.8159 19.0898L11.9996 19.2523L19.1833 19.0898C20.5145 19.0597 21.6416 18.0991 21.8823 16.7896C22.464 13.6245 22.464 10.3798 21.8823 7.21474C21.6416 5.90517 20.5145 4.94455 19.1833 4.91444ZM4.84982 6.41406L11.9996 6.25234L19.1494 6.41406C19.7697 6.42809 20.2949 6.87569 20.407 7.48588C20.5603 8.31987 20.6708 9.15971 20.7384 10.0021H3.26084C3.3285 9.15971 3.43896 8.31987 3.59225 7.48588C3.70439 6.87569 4.22957 6.42809 4.84982 6.41406ZM3.18066 12.0021C3.18066 13.5138 3.31786 15.0255 3.59225 16.5184C3.70439 17.1286 4.22957 17.5762 4.84982 17.5902L11.9996 17.752L19.1494 17.5902C19.7697 17.5762 20.2949 17.1286 20.407 16.5184C20.6814 15.0255 20.8186 13.5138 20.8186 12.0021H3.18066Z" fill="#FEFEFE"/>
</svg>
