<svg width="25" height="25" viewBox="0 0 25 25" fill="none" xmlns="http://www.w3.org/2000/svg">
<path d="M19.6953 11.5483C19.6953 10.7308 19.6953 9.97894 19.5431 9.6114C19.3908 9.24386 19.1018 8.95483 18.5237 8.37677L13.7872 3.64022C13.2883 3.14134 13.0389 2.89189 12.7298 2.74409C12.6655 2.71334 12.5997 2.68606 12.5325 2.66235C12.2094 2.54834 11.8567 2.54834 11.1511 2.54834C7.90613 2.54834 6.28362 2.54834 5.18464 3.43441C4.96262 3.61342 4.76039 3.81565 4.58138 4.03767C3.69531 5.13665 3.69531 6.75916 3.69531 10.0042V14.5483C3.69531 18.3195 3.69531 20.2052 4.86688 21.3767C6.03846 22.5483 7.92407 22.5483 11.6953 22.5483H19.6953M12.6953 3.04834V3.54834C12.6953 6.37677 12.6953 7.79098 13.574 8.66966C14.4527 9.54834 15.8669 9.54834 18.6953 9.54834H19.1953" stroke="#666666" stroke-width="1.5" stroke-linecap="round" stroke-linejoin="round"/>
<path d="M21.6953 15.5483C21.6953 14.996 21.2476 14.5483 20.6953 14.5483H19.1953C18.643 14.5483 18.1953 14.996 18.1953 15.5483V18.5483C18.1953 19.1006 18.643 19.5483 19.1953 19.5483H20.6953C21.2476 19.5483 21.6953 19.1006 21.6953 18.5483V17.5483H20.6953M11.1953 14.5483V17.7983C11.1953 18.7648 10.4118 19.5483 9.44531 19.5483H9.36198C8.4415 19.5483 7.69531 18.8021 7.69531 17.8816M13.1953 19.5483V17.5483M13.1953 17.5483V15.5483C13.1953 14.996 13.643 14.5483 14.1953 14.5483H14.6953C15.5237 14.5483 16.1953 15.2199 16.1953 16.0483C16.1953 16.8767 15.5237 17.5483 14.6953 17.5483H13.1953Z" stroke="#666666" stroke-width="1.5" stroke-linecap="round" stroke-linejoin="round"/>
</svg>
