<svg width="13" height="12" viewBox="0 0 13 12" fill="none" xmlns="http://www.w3.org/2000/svg">
<path d="M11.1637 0.729353C11.0795 0.640546 10.9431 0.640472 10.8589 0.729353L8.62467 3.08877C8.59452 3.12059 8.57399 3.16114 8.56567 3.20529C8.55735 3.24943 8.56161 3.29519 8.57792 3.33678C8.59423 3.37836 8.62186 3.41391 8.6573 3.43891C8.69274 3.46391 8.73441 3.47725 8.77703 3.47724C8.80534 3.47728 8.83337 3.47141 8.85952 3.45998C8.88567 3.44854 8.90943 3.43177 8.92942 3.41061L11.1637 1.05119C11.2478 0.962285 11.2478 0.818209 11.1637 0.729353ZM11.7713 1.36088C11.7309 1.31822 11.6761 1.29426 11.6189 1.29426C11.5618 1.29426 11.507 1.31822 11.4665 1.36088L9.23228 3.72035C9.19188 3.76303 9.16918 3.82091 9.16918 3.88126C9.16917 3.94161 9.19186 3.99949 9.23226 4.04218C9.25226 4.06334 9.27601 4.08012 9.30216 4.09155C9.32831 4.10299 9.35635 4.10885 9.38465 4.10881C9.41296 4.10885 9.44099 4.10299 9.46714 4.09155C9.49329 4.08012 9.51705 4.06334 9.53704 4.04218L11.7713 1.68269C11.7913 1.66156 11.8072 1.63648 11.818 1.60887C11.8288 1.58126 11.8344 1.55167 11.8344 1.52178C11.8344 1.4919 11.8288 1.46231 11.818 1.4347C11.8072 1.40709 11.7913 1.38201 11.7713 1.36088Z" fill="#D3D3D3"/>
<path d="M9.66368 5.34529L12.4372 2.4163C12.4572 2.39517 12.4731 2.37008 12.4839 2.34247C12.4948 2.31486 12.5003 2.28527 12.5003 2.25538C12.5003 2.2255 12.4948 2.1959 12.4839 2.16829C12.4731 2.14068 12.4572 2.1156 12.4372 2.09446C12.353 2.00566 12.2166 2.00558 12.1325 2.09446L9.35897 5.02346C9.01727 5.38428 8.4948 5.47895 8.05889 5.25911C8.0167 5.23783 7.9691 5.23161 7.92328 5.2414C7.87745 5.25119 7.83588 5.27646 7.80485 5.31339L6.86245 6.43469C6.86208 6.43511 6.86165 6.43548 6.86128 6.43593C6.8609 6.43637 6.86062 6.43684 6.86025 6.43729L2.78707 11.2835L2.784 11.2872C2.77159 11.3027 2.75859 11.3177 2.74505 11.3321C2.4761 11.6161 2.03852 11.6161 1.7697 11.3321C1.63943 11.1946 1.56769 11.0116 1.56769 10.8171C1.56769 10.6225 1.63943 10.4396 1.76993 10.3018C1.78347 10.2876 1.79757 10.2739 1.81219 10.2609C1.81341 10.2598 1.81458 10.2587 1.81575 10.2576L4.36219 7.87079C4.40493 7.83073 4.43085 7.77438 4.43424 7.71413C4.43764 7.65389 4.41824 7.59469 4.3803 7.54955C4.3013 7.45552 4.16508 7.44693 4.07611 7.53042L1.53136 9.91568C1.50841 9.93625 1.48626 9.9578 1.46496 9.98025C1.2533 10.2038 1.13672 10.501 1.13672 10.8171C1.13672 11.1332 1.25327 11.4304 1.46494 11.6539C1.68345 11.8846 1.97039 12 2.25741 12C2.5443 12 2.83132 11.8847 3.04966 11.654C3.07098 11.6315 3.09144 11.6081 3.11098 11.5838L6.21485 7.89077L9.31877 11.5838C9.33825 11.6081 9.35865 11.6315 9.37992 11.654C9.59838 11.8847 9.88535 12 10.1723 12C10.4593 12 10.7463 11.8847 10.9648 11.6539C11.4017 11.1925 11.4017 10.4418 10.9649 9.98045C10.9436 9.95794 10.9214 9.93635 10.8984 9.91573L7.32673 6.5679L8.02551 5.73646C8.59169 5.9483 9.23233 5.80074 9.66368 5.34529ZM10.614 10.2577L10.6175 10.2609C10.6322 10.274 10.6464 10.2877 10.66 10.302C10.9289 10.586 10.9289 11.0481 10.66 11.3321C10.3911 11.616 9.95353 11.616 9.68451 11.3319C9.66987 11.3164 9.65587 11.3002 9.64256 11.2834L6.50294 7.54794L7.04058 6.90825L10.614 10.2577Z" fill="#D3D3D3"/>
<path d="M10.5167 0.0666191C10.4763 0.0239619 10.4215 0 10.3643 0C10.3072 0 10.2524 0.0239619 10.2119 0.0666191L7.43843 2.99564C7.00704 3.45115 6.86736 4.12763 7.06796 4.72566L6.21448 5.52567L5.39421 4.7568C5.81841 3.87536 5.66356 2.80515 4.99057 2.09442C4.32218 1.38857 3.548 0.891845 2.81063 0.695791C2.04087 0.491174 1.38092 0.627775 0.952154 1.08055C0.523388 1.53332 0.394013 2.23036 0.587818 3.04321C0.77349 3.82185 1.24383 4.63943 1.91227 5.34525C2.58525 6.05601 3.59864 6.21954 4.43335 5.77154L5.24567 6.73802C5.26587 6.76212 5.2907 6.78139 5.3185 6.79458C5.3463 6.80777 5.37644 6.81456 5.40692 6.8145C5.45963 6.81456 5.51052 6.79414 5.54989 6.75713L7.46862 4.95862C7.50358 4.92584 7.5275 4.88194 7.53677 4.83355C7.54604 4.78516 7.54016 4.7349 7.52002 4.69034C7.3118 4.22995 7.40147 3.67825 7.74317 3.31745L10.5167 0.388457C10.5367 0.367326 10.5526 0.342239 10.5634 0.314628C10.5742 0.287017 10.5798 0.257424 10.5798 0.227538C10.5798 0.197652 10.5742 0.168059 10.5634 0.140448C10.5526 0.112838 10.5367 0.0877504 10.5167 0.0666191ZM5.42494 6.26575L4.64053 5.33248C4.60688 5.29243 4.56092 5.26619 4.51076 5.2584C4.46059 5.2506 4.40942 5.26174 4.36627 5.28986C3.67538 5.73976 2.79155 5.63029 2.21696 5.02347C1.6028 4.37491 1.17265 3.63221 1.00571 2.93208C0.850435 2.2807 0.939638 1.73742 1.25691 1.40238C1.57414 1.0673 2.08859 0.973152 2.70537 1.13715C3.36835 1.31343 4.07168 1.76766 4.68579 2.41624C5.26039 3.02301 5.36407 3.95637 4.93803 4.68599C4.91142 4.73156 4.90088 4.78559 4.90826 4.83856C4.91564 4.89154 4.94047 4.94007 4.97839 4.97562L5.88982 5.82993L5.42494 6.26575Z" fill="#D3D3D3"/>
</svg>
