<svg width="16" height="16" viewBox="0 0 16 16" fill="none" xmlns="http://www.w3.org/2000/svg">
<path d="M9.42474 2.24095L9.09306 2.27412V2.27412L9.42474 2.24095ZM9.32319 1.69451L9.02692 1.84727L9.02693 1.84727L9.32319 1.69451ZM9.62124 3.21162L9.35617 3.41374L9.35617 3.41374L9.62124 3.21162ZM10.2404 3.46809L10.2849 3.79844L10.2404 3.46809ZM11.0657 2.92071L11.2768 3.1787V3.1787L11.0657 2.92071ZM11.5238 2.60619L11.6253 2.9237L11.5238 2.60619ZM11.9919 2.62954L12.1245 2.32371L12.1245 2.32371L11.9919 2.62954ZM12.4164 2.98808L12.1807 3.22379V3.22379L12.4164 2.98808ZM13.0122 3.58383L12.7765 3.81953L12.7932 3.83628L12.8122 3.85049L13.0122 3.58383ZM13.0122 3.58383L13.2479 3.34813L13.2311 3.33138L13.2122 3.31716L13.0122 3.58383ZM13.3708 4.00853L13.6767 3.876L13.3708 4.00853ZM13.3942 4.47648L13.7117 4.57792L13.7117 4.57792L13.3942 4.47648ZM13.0796 4.93477L13.3375 5.14584V5.14584L13.0796 4.93477ZM12.532 5.76037L12.8624 5.80481V5.80481L12.532 5.76037ZM12.7884 6.3793L12.5862 6.64433H12.5862L12.7884 6.3793ZM14.3063 6.67757L14.1535 6.9738L14.3063 6.67757ZM14.6206 7.02483L14.3106 7.14743V7.14743L14.6206 7.02483ZM14.6206 8.97512L14.9306 9.09765V9.09765L14.6206 8.97512ZM14.3062 9.32258L14.459 9.61884L14.459 9.61884L14.3062 9.32258ZM13.7597 9.42413V9.75747H13.7764L13.7929 9.75581L13.7597 9.42413ZM13.7597 9.42413V9.0908H13.7431L13.7266 9.09245L13.7597 9.42413ZM12.789 9.62065L12.9911 9.88571L12.789 9.62065ZM12.5326 10.2398L12.8629 10.1953L12.5326 10.2398ZM13.08 11.0651L12.822 11.2762L13.08 11.0651ZM13.3945 11.5232L13.712 11.4217L13.3945 11.5232ZM13.3712 11.9913L13.677 12.1239H13.677L13.3712 11.9913ZM13.0126 12.4159L12.7769 12.1802L13.0126 12.4159ZM12.4169 13.0116L12.6526 13.2473L12.4169 13.0116ZM11.9922 13.3703L11.8596 13.0644L11.8596 13.0644L11.9922 13.3703ZM11.5242 13.3936L11.4228 13.7111L11.4228 13.7111L11.5242 13.3936ZM11.0659 13.079L10.8302 13.3147L10.842 13.3265L10.8549 13.337L11.0659 13.079ZM11.0659 13.079L11.3016 12.8433L11.2899 12.8315L11.277 12.821L11.0659 13.079ZM10.2403 12.5314L10.1959 12.8618L10.2403 12.5314ZM9.62139 12.7878L9.35637 12.5856L9.35636 12.5856L9.62139 12.7878ZM9.42476 13.7589L9.09308 13.7258L9.42476 13.7589ZM9.32312 14.3057L9.02689 14.1529L9.02689 14.1529L9.32312 14.3057ZM8.97585 14.62L9.09845 14.9299H9.09845L8.97585 14.62ZM7.02545 14.62L6.90286 14.93L6.90286 14.93L7.02545 14.62ZM6.67818 14.3057L6.38194 14.4585L6.38194 14.4585L6.67818 14.3057ZM6.57655 13.759L6.24487 13.7922L6.24487 13.7922L6.57655 13.759ZM6.37985 12.7877L6.64483 12.5855L6.37985 12.7877ZM5.7611 12.5314L5.80549 12.8618H5.80549L5.7611 12.5314ZM4.93516 13.0792L4.72409 12.8212L4.70259 12.8388L4.68431 12.8597L4.93516 13.0792ZM4.93516 13.0792L5.14624 13.3372L5.16773 13.3196L5.18602 13.2987L4.93516 13.0792ZM4.47662 13.394L4.578 13.7115H4.578L4.47662 13.394ZM4.0089 13.3706L4.14138 13.0648L4.14138 13.0648L4.0089 13.3706ZM3.58398 13.0118L3.81969 12.7761L3.81064 12.7671L3.80092 12.7587L3.58398 13.0118ZM3.58397 13.0118L3.34827 13.2475L3.35732 13.2566L3.36704 13.2649L3.58397 13.0118ZM2.98845 12.4163L3.22415 12.1806L3.22415 12.1806L2.98845 12.4163ZM2.62975 11.9915L2.32389 12.1241H2.32389L2.62975 11.9915ZM2.60641 11.5236L2.92394 11.6251H2.92394L2.60641 11.5236ZM2.92111 11.0652L3.17933 11.2765L3.18778 11.2652L2.92111 11.0652ZM2.92112 11.0652L3.18778 11.2652L3.19334 11.2578L3.19847 11.2501L2.92112 11.0652ZM2.92112 11.0652L2.66314 10.8541L2.65282 10.8668L2.64377 10.8803L2.92112 11.0652ZM3.46865 10.2398L3.799 10.2843L3.46865 10.2398ZM3.21221 9.62065L3.41433 9.35559L3.41433 9.35559L3.21221 9.62065ZM2.24151 9.42413L2.20834 9.75581H2.20834L2.24151 9.42413ZM1.69513 9.32259L1.54237 9.61886L1.54237 9.61886L1.69513 9.32259ZM1.38065 8.97509L1.69065 8.85257L1.69065 8.85257L1.38065 8.97509ZM1.33398 8.42132H1.00065H1.33398ZM1.33398 7.57894H1.66732H1.33398ZM1.38071 7.02485L1.69068 7.14744H1.69068L1.38071 7.02485ZM1.695 6.67756L1.84782 6.9738L1.84783 6.9738L1.695 6.67756ZM2.24169 6.57594V6.2426H2.22506L2.20852 6.24426L2.24169 6.57594ZM2.24169 6.57594V6.90927H2.25832L2.27486 6.90762L2.24169 6.57594ZM3.21293 6.37925L3.41514 6.64424L3.21293 6.37925ZM3.46923 5.76048L3.13887 5.80487H3.13887L3.46923 5.76048ZM2.9215 4.93459L3.17949 4.72351H3.17949L2.9215 4.93459ZM2.60674 4.47608L2.2892 4.57747L2.2892 4.57747L2.60674 4.47608ZM2.63007 4.00833L2.93595 4.14081V4.14081L2.63007 4.00833ZM2.98887 3.58343L3.22458 3.81913H3.22458L2.98887 3.58343ZM3.58442 2.98789L3.82012 3.22359V3.22359L3.58442 2.98789ZM4.00916 2.62919L3.87664 2.32334L3.87664 2.32334L4.00916 2.62919ZM4.47707 2.60586L4.37564 2.92338L4.37564 2.92338L4.47707 2.60586ZM4.93545 2.92055L5.14885 2.66446L5.14653 2.66256L4.93545 2.92055ZM4.93545 2.92055L4.72205 3.17663L4.72437 3.17853L4.93545 2.92055ZM5.76095 3.46809L5.71646 3.79844H5.71646L5.76095 3.46809ZM6.38003 3.21165L6.64508 3.41379L6.38003 3.21165ZM6.57656 2.24091L6.90824 2.27408L6.9099 2.25754V2.24091H6.57656ZM6.57656 2.24091L6.24488 2.20774L6.24323 2.22428V2.24091H6.57656ZM6.67811 1.69451L6.38184 1.54174V1.54175L6.67811 1.69451ZM7.02559 1.38005L6.90306 1.07005V1.07005L7.02559 1.38005ZM8.97572 1.38005L8.85319 1.69004L8.85319 1.69004L8.97572 1.38005ZM9.75642 2.20778C9.74241 2.06766 9.73045 1.94635 9.71368 1.84646C9.69636 1.7433 9.67075 1.64121 9.61946 1.54174L9.02693 1.84727C9.03382 1.86065 9.04453 1.88726 9.05622 1.95684C9.06845 2.0297 9.07817 2.12518 9.09306 2.27412L9.75642 2.20778ZM9.88631 3.00951C9.87877 2.99963 9.85434 2.9589 9.82866 2.81613C9.80354 2.67655 9.78433 2.4869 9.75642 2.20778L9.09306 2.27412C9.11986 2.54206 9.14167 2.76271 9.17253 2.93418C9.2028 3.10246 9.24927 3.27353 9.35617 3.41374L9.88631 3.00951ZM10.1959 3.13775C10.0772 3.15375 9.95896 3.10479 9.88631 3.00951L9.35617 3.41374C9.57412 3.69957 9.9287 3.84644 10.2849 3.79844L10.1959 3.13775ZM10.8546 2.66273C10.6375 2.84035 10.4898 2.96085 10.3734 3.04178C10.2543 3.12456 10.2082 3.13609 10.1959 3.13775L10.2849 3.79844C10.4597 3.7749 10.6135 3.68679 10.7539 3.58921C10.8969 3.48978 11.0684 3.3492 11.2768 3.1787L10.8546 2.66273ZM11.4223 2.28869C11.3157 2.32276 11.2254 2.37682 11.1402 2.43751C11.0578 2.49627 10.9636 2.57358 10.8546 2.66273L11.2768 3.1787C11.3926 3.08394 11.4669 3.02331 11.5271 2.98046C11.5845 2.93952 11.6109 2.92829 11.6253 2.9237L11.4223 2.28869ZM12.1245 2.32371C11.9024 2.22742 11.6529 2.21498 11.4223 2.28869L11.6253 2.9237C11.7021 2.89913 11.7853 2.90328 11.8593 2.93538L12.1245 2.32371ZM12.6521 2.75238C12.5526 2.65283 12.4665 2.56653 12.3903 2.49986C12.3116 2.431 12.2271 2.36822 12.1245 2.32371L11.8593 2.93538C11.8731 2.94136 11.8983 2.95517 11.9514 3.00162C12.0069 3.05025 12.0749 3.11797 12.1807 3.22379L12.6521 2.75238ZM13.2479 3.34812L12.6521 2.75238L12.1807 3.22379L12.7765 3.81953L13.2479 3.34812ZM13.2122 3.31716L13.2122 3.31716L12.8122 3.85049L12.8122 3.8505L13.2122 3.31716ZM13.6767 3.876C13.6322 3.77328 13.5694 3.6888 13.5005 3.61005C13.4338 3.53381 13.3475 3.44772 13.2479 3.34813L12.7765 3.81953C12.8823 3.92539 12.9501 3.99338 12.9987 4.049C13.0452 4.10211 13.059 4.12725 13.065 4.14106L13.6767 3.876ZM13.7117 4.57792C13.7853 4.34742 13.7729 4.09803 13.6767 3.876L13.065 4.14106C13.0971 4.21508 13.1012 4.2982 13.0767 4.37504L13.7117 4.57792ZM13.3375 5.14584C13.4267 5.03684 13.5041 4.94258 13.5628 4.86008C13.6236 4.77487 13.6776 4.68456 13.7117 4.57792L13.0767 4.37504C13.0721 4.38938 13.0608 4.41577 13.0199 4.47324C12.977 4.53342 12.9164 4.60782 12.8216 4.72369L13.3375 5.14584ZM12.8624 5.80481C12.864 5.79248 12.8755 5.74639 12.9583 5.62724C13.0393 5.51075 13.1598 5.36302 13.3375 5.14584L12.8216 4.72369C12.651 4.93216 12.5104 5.10366 12.4109 5.24678C12.3133 5.38723 12.2252 5.54112 12.2016 5.71592L12.8624 5.80481ZM12.9905 6.11428C12.8953 6.04164 12.8464 5.9235 12.8624 5.80481L12.2016 5.71592C12.1537 6.072 12.3005 6.42641 12.5862 6.64433L12.9905 6.11428ZM13.7927 6.24425C13.5134 6.21632 13.3237 6.1971 13.184 6.17197C13.0412 6.14627 13.0004 6.12182 12.9905 6.11428L12.5862 6.64433C12.7264 6.75131 12.8976 6.7978 13.0659 6.8281C13.2375 6.85897 13.4583 6.8808 13.7263 6.9076L13.7927 6.24425ZM14.4592 6.38134C14.3596 6.32999 14.2575 6.30435 14.1543 6.28702C14.0543 6.27024 13.9329 6.25827 13.7927 6.24425L13.7263 6.9076C13.8754 6.92251 13.9709 6.93224 14.0438 6.94448C14.1135 6.95618 14.1401 6.9669 14.1535 6.9738L14.4592 6.38134ZM14.9306 6.90223C14.8416 6.6773 14.6741 6.49225 14.4592 6.38134L14.1535 6.9738C14.2251 7.01077 14.281 7.07246 14.3106 7.14743L14.9306 6.90223ZM15.0007 7.57897C15.0007 7.43807 15.0008 7.3161 14.9941 7.21499C14.9871 7.11055 14.9717 7.00636 14.9306 6.90223L14.3106 7.14743C14.3162 7.16144 14.3242 7.18899 14.3289 7.25943C14.3338 7.33318 14.334 7.42921 14.334 7.57897H15.0007ZM15.0007 8.42129V7.57897H14.334V8.42129H15.0007ZM14.9306 9.09765C14.9718 8.99356 14.9871 8.88943 14.9941 8.78506C15.0008 8.68401 15.0007 8.56211 15.0007 8.42129H14.334C14.334 8.57096 14.3338 8.66694 14.3289 8.74065C14.3242 8.81104 14.3162 8.83858 14.3106 8.85258L14.9306 9.09765ZM14.459 9.61884C14.6741 9.50791 14.8417 9.32273 14.9306 9.09765L14.3106 8.85258C14.281 8.92761 14.2251 8.98934 14.1534 9.02631L14.459 9.61884ZM13.7929 9.75581C13.933 9.7418 14.0544 9.72984 14.1542 9.71307C14.2574 9.69575 14.3595 9.67014 14.459 9.61884L14.1534 9.02631C14.14 9.03321 14.1134 9.04392 14.0439 9.0556C13.971 9.06784 13.8755 9.07756 13.7266 9.09245L13.7929 9.75581ZM13.7597 9.75747H13.7597V9.0908H13.7597V9.75747ZM12.9911 9.88571C13.001 9.87817 13.0418 9.85374 13.1845 9.82805C13.3241 9.80294 13.5138 9.78372 13.7929 9.75581L13.7266 9.09245C13.4586 9.11925 13.238 9.14107 13.0665 9.17192C12.8982 9.2022 12.7271 9.24867 12.5869 9.35559L12.9911 9.88571ZM12.8629 10.1953C12.8469 10.0765 12.8959 9.95836 12.9911 9.88571L12.5869 9.35559C12.3011 9.57353 12.1542 9.92808 12.2022 10.2843L12.8629 10.1953ZM13.338 10.854C13.1603 10.6369 13.0398 10.4892 12.9589 10.3728C12.8761 10.2537 12.8646 10.2076 12.8629 10.1953L12.2022 10.2843C12.2258 10.459 12.3139 10.6129 12.4114 10.7533C12.5109 10.8963 12.6515 11.0678 12.822 11.2762L13.338 10.854ZM13.712 11.4217C13.678 11.3152 13.6239 11.2249 13.5632 11.1397C13.5044 11.0572 13.4271 10.963 13.338 10.854L12.822 11.2762C12.9168 11.392 12.9774 11.4664 13.0202 11.5265C13.0612 11.584 13.0724 11.6104 13.077 11.6247L13.712 11.4217ZM13.677 12.1239C13.7733 11.9018 13.7857 11.6523 13.712 11.4217L13.077 11.6247C13.1016 11.7016 13.0974 11.7847 13.0653 11.8588L13.677 12.1239ZM13.2483 12.6516C13.3479 12.552 13.4342 12.466 13.5008 12.3898C13.5697 12.311 13.6325 12.2266 13.677 12.1239L13.0653 11.8588C13.0593 11.8726 13.0455 11.8977 12.9991 11.9508C12.9504 12.0064 12.8827 12.0744 12.7769 12.1802L13.2483 12.6516ZM12.6526 13.2473L13.2483 12.6516L12.7769 12.1802L12.1812 12.7759L12.6526 13.2473ZM12.1247 13.6761C12.2274 13.6316 12.3119 13.5688 12.3906 13.4999C12.4669 13.4332 12.553 13.3469 12.6526 13.2473L12.1812 12.7759C12.0753 12.8818 12.0073 12.9495 11.9517 12.9982C11.8986 13.0446 11.8735 13.0584 11.8596 13.0644L12.1247 13.6761ZM11.4228 13.7111C11.6533 13.7848 11.9027 13.7723 12.1247 13.6761L11.8596 13.0644C11.7856 13.0965 11.7025 13.1006 11.6257 13.0761L11.4228 13.7111ZM10.8549 13.337C10.9639 13.4262 11.0581 13.5035 11.1406 13.5623C11.2258 13.623 11.3161 13.6771 11.4228 13.7111L11.6257 13.0761C11.6113 13.0715 11.5849 13.0603 11.5275 13.0193C11.4673 12.9765 11.3929 12.9158 11.277 12.821L10.8549 13.337ZM10.8302 13.3147L10.8302 13.3147L11.3016 12.8433L11.3016 12.8433L10.8302 13.3147ZM10.1959 12.8618C10.2082 12.8634 10.2543 12.875 10.3734 12.9578C10.4899 13.0387 10.6377 13.1593 10.8549 13.337L11.277 12.821C11.0685 12.6504 10.897 12.5098 10.7539 12.4103C10.6135 12.3127 10.4596 12.2246 10.2848 12.2011L10.1959 12.8618ZM9.88641 12.99C9.95905 12.8947 10.0772 12.8458 10.1959 12.8618L10.2848 12.2011C9.92868 12.1532 9.57428 12.3 9.35637 12.5856L9.88641 12.99ZM9.75644 13.7921C9.78437 13.5128 9.80359 13.3231 9.82872 13.1834C9.85442 13.0406 9.87887 12.9999 9.88641 12.99L9.35636 12.5856C9.24938 12.7259 9.20288 12.897 9.17259 13.0654C9.14172 13.2369 9.11989 13.4577 9.09308 13.7258L9.75644 13.7921ZM9.61936 14.4585C9.6707 14.359 9.69634 14.2569 9.71367 14.1536C9.73045 14.0537 9.74242 13.9323 9.75644 13.7921L9.09308 13.7258C9.07818 13.8748 9.06845 13.9703 9.05621 14.0432C9.04452 14.1129 9.0338 14.1395 9.02689 14.1529L9.61936 14.4585ZM9.09845 14.9299C9.32339 14.841 9.50845 14.6735 9.61936 14.4585L9.02689 14.1529C8.98992 14.2245 8.92823 14.2804 8.85326 14.31L9.09845 14.9299ZM8.42174 15C8.56263 15 8.68459 15.0002 8.7857 14.9935C8.89013 14.9865 8.99431 14.9711 9.09845 14.9299L8.85326 14.31C8.83925 14.3156 8.8117 14.3236 8.74126 14.3283C8.66751 14.3332 8.57149 14.3334 8.42174 14.3334V15ZM7.57956 15H8.42174V14.3334H7.57956V15ZM6.90286 14.93C7.00699 14.9711 7.11117 14.9865 7.2156 14.9935C7.31671 15.0002 7.43867 15 7.57956 15V14.3334C7.42981 14.3334 7.33379 14.3332 7.26004 14.3283C7.18961 14.3236 7.16206 14.3156 7.14805 14.31L6.90286 14.93ZM6.38194 14.4585C6.49285 14.6735 6.67792 14.841 6.90286 14.93L7.14805 14.31C7.07307 14.2804 7.01138 14.2245 6.97441 14.1529L6.38194 14.4585ZM6.24487 13.7922C6.25889 13.9324 6.27085 14.0537 6.28763 14.1537C6.30496 14.2569 6.3306 14.359 6.38194 14.4585L6.97441 14.1529C6.9675 14.1395 6.95678 14.1129 6.94509 14.0433C6.93285 13.9704 6.92313 13.8748 6.90823 13.7258L6.24487 13.7922ZM6.11486 12.9899C6.12241 12.9998 6.14687 13.0406 6.17258 13.1834C6.19771 13.3231 6.21694 13.5129 6.24487 13.7922L6.90823 13.7258C6.88141 13.4577 6.85958 13.2369 6.8287 13.0653C6.79839 12.8969 6.75187 12.7258 6.64483 12.5855L6.11486 12.9899ZM5.80549 12.8618C5.92414 12.8459 6.04223 12.8948 6.11486 12.9899L6.64483 12.5855C6.42695 12.3 6.07268 12.1532 5.71672 12.2011L5.80549 12.8618ZM5.14624 13.3372C5.36351 13.1594 5.5113 13.0388 5.62784 12.9578C5.74705 12.875 5.79316 12.8634 5.80549 12.8618L5.71672 12.2011C5.54185 12.2246 5.3879 12.3127 5.24739 12.4104C5.10422 12.5099 4.93264 12.6506 4.72409 12.8212L5.14624 13.3372ZM5.18602 13.2987L5.18602 13.2987L4.68431 12.8597L4.6843 12.8597L5.18602 13.2987ZM4.578 13.7115C4.6847 13.6774 4.77506 13.6233 4.86032 13.5626C4.94286 13.5038 5.03717 13.4264 5.14624 13.3372L4.72408 12.8212C4.60816 12.916 4.53371 12.9767 4.4735 13.0196C4.41599 13.0606 4.38958 13.0718 4.37523 13.0764L4.578 13.7115ZM3.87643 13.6765C4.09836 13.7726 4.3476 13.7851 4.578 13.7115L4.37523 13.0764C4.29844 13.1009 4.21535 13.0968 4.14138 13.0648L3.87643 13.6765ZM3.34828 13.2475C3.44792 13.3472 3.53405 13.4335 3.61033 13.5003C3.68912 13.5692 3.77365 13.632 3.87643 13.6765L4.14138 13.0648C4.12755 13.0588 4.1024 13.045 4.04926 12.9985C3.99362 12.9498 3.92559 12.882 3.81969 12.7761L3.34828 13.2475ZM3.36704 13.2649L3.36705 13.2649L3.80092 12.7587L3.8009 12.7587L3.36704 13.2649ZM2.75274 12.652L3.34827 13.2475L3.81968 12.7761L3.22415 12.1806L2.75274 12.652ZM2.32389 12.1241C2.3684 12.2268 2.4312 12.3113 2.5001 12.39C2.5668 12.4663 2.65314 12.5524 2.75275 12.652L3.22415 12.1806C3.11828 12.0747 3.05052 12.0067 3.00187 11.9511C2.9554 11.898 2.94159 11.8728 2.93561 11.859L2.32389 12.1241ZM2.28888 11.4222C2.21526 11.6527 2.2277 11.902 2.32389 12.1241L2.93561 11.859C2.90354 11.785 2.8994 11.7019 2.92394 11.6251L2.28888 11.4222ZM2.66313 10.8542C2.57391 10.9632 2.49656 11.0575 2.43776 11.14C2.37705 11.2252 2.32295 11.3156 2.28888 11.4222L2.92394 11.6251C2.92852 11.6107 2.93976 11.5843 2.98072 11.5268C3.02361 11.4666 3.08428 11.3922 3.1791 11.2763L2.66313 10.8542ZM2.65445 10.8652L2.65444 10.8652L3.18778 11.2652L3.18778 11.2652L2.65445 10.8652ZM2.64377 10.8803L2.64377 10.8803L3.19847 11.2501L3.19847 11.2501L2.64377 10.8803ZM3.1383 10.1953C3.13664 10.2076 3.12511 10.2537 3.0423 10.3728C2.96135 10.4893 2.84081 10.637 2.66314 10.8541L3.17911 11.2763C3.34966 11.0679 3.49028 10.8964 3.58973 10.7533C3.68733 10.6129 3.77546 10.459 3.799 10.2843L3.1383 10.1953ZM3.01008 9.8857C3.10534 9.95835 3.15429 10.0765 3.1383 10.1953L3.799 10.2843C3.84698 9.92807 3.70012 9.57353 3.41433 9.35559L3.01008 9.8857ZM2.20834 9.75581C2.48747 9.78372 2.67711 9.80293 2.81669 9.82804C2.95946 9.85373 3.00019 9.87816 3.01008 9.8857L3.41433 9.35559C3.27412 9.24867 3.10304 9.20219 2.93475 9.17191C2.76327 9.14106 2.54262 9.11924 2.27468 9.09245L2.20834 9.75581ZM1.54237 9.61886C1.64184 9.67014 1.74392 9.69575 1.84707 9.71307C1.94694 9.72984 2.06823 9.74179 2.20834 9.75581L2.27468 9.09245C2.12576 9.07756 2.03029 9.06784 1.95744 9.0556C1.88787 9.04392 1.86127 9.03322 1.84789 9.02632L1.54237 9.61886ZM1.07065 9.09761C1.15963 9.32273 1.32723 9.50793 1.54237 9.61886L1.84789 9.02632C1.77618 8.98934 1.72031 8.92761 1.69065 8.85257L1.07065 9.09761ZM1.00065 8.42132C1.00065 8.56213 1.00048 8.68401 1.00723 8.78506C1.01419 8.88942 1.02952 8.99354 1.07065 9.09762L1.69065 8.85257C1.68512 8.83857 1.67711 8.81104 1.67241 8.74065C1.66749 8.66694 1.66732 8.57098 1.66732 8.42133L1.00065 8.42132ZM1.00065 7.57894L1.00065 8.42132L1.66732 8.42133L1.66732 7.57894L1.00065 7.57894ZM1.07074 6.90226C1.02955 7.00639 1.01421 7.11057 1.00723 7.21499C1.00048 7.31609 1.00065 7.43805 1.00065 7.57894L1.66732 7.57894C1.66732 7.42919 1.66749 7.33317 1.67242 7.25943C1.67712 7.189 1.68514 7.16145 1.69068 7.14744L1.07074 6.90226ZM1.54217 6.38133C1.32719 6.49223 1.1597 6.67731 1.07074 6.90226L1.69068 7.14744C1.72033 7.07246 1.77617 7.01077 1.84782 6.9738L1.54217 6.38133ZM2.20852 6.24426C2.06833 6.25828 1.94696 6.27024 1.84703 6.28702C1.74382 6.30435 1.64169 6.32999 1.54217 6.38133L1.84783 6.9738C1.86121 6.96689 1.88783 6.95617 1.95744 6.94448C2.03033 6.93224 2.12585 6.92252 2.27486 6.90762L2.20852 6.24426ZM2.24169 6.2426H2.24169V6.90927H2.24169V6.2426ZM3.01071 6.11425C3.00082 6.1218 2.96007 6.14626 2.81723 6.17197C2.67757 6.1971 2.48781 6.21633 2.20852 6.24426L2.27486 6.90762C2.54296 6.88081 2.76374 6.85897 2.93532 6.82809C3.10371 6.79779 3.27488 6.75127 3.41514 6.64424L3.01071 6.11425ZM3.13887 5.80487C3.15481 5.92353 3.10589 6.04163 3.01071 6.11425L3.41514 6.64424C3.70068 6.42635 3.84743 6.07207 3.79959 5.71609L3.13887 5.80487ZM2.66352 5.14567C2.84127 5.36292 2.96187 5.5107 3.04285 5.62724C3.12569 5.74643 3.13721 5.79254 3.13887 5.80487L3.79959 5.71609C3.7761 5.54123 3.68794 5.38729 3.5903 5.24678C3.49081 5.10362 3.35012 4.93205 3.17949 4.72351L2.66352 5.14567ZM2.2892 4.57747C2.32327 4.68415 2.37737 4.77452 2.4381 4.85977C2.49691 4.94231 2.57428 5.0366 2.66352 5.14567L3.17949 4.72351C3.08465 4.60759 3.02396 4.53315 2.98107 4.47294C2.9401 4.41544 2.92886 4.38904 2.92428 4.37469L2.2892 4.57747ZM2.3242 3.87585C2.22807 4.09779 2.21563 4.34706 2.2892 4.57747L2.92428 4.37469C2.89976 4.29788 2.9039 4.21479 2.93595 4.14081L2.3242 3.87585ZM2.75317 3.34773C2.65354 3.44737 2.56717 3.53349 2.50044 3.60977C2.43153 3.68855 2.36871 3.77308 2.3242 3.87585L2.93595 4.14081C2.94193 4.12699 2.95575 4.10183 3.00223 4.0487C3.05089 3.99306 3.11868 3.92503 3.22458 3.81913L2.75317 3.34773ZM3.34872 2.75218L2.75317 3.34773L3.22458 3.81913L3.82012 3.22359L3.34872 2.75218ZM3.87664 2.32334C3.77391 2.36785 3.68942 2.43065 3.61066 2.49954C3.53441 2.56624 3.44832 2.65258 3.34872 2.75218L3.82012 3.22359C3.92599 3.11773 3.99399 3.04997 4.04961 3.00131C4.10272 2.95485 4.12787 2.94104 4.14169 2.93505L3.87664 2.32334ZM4.5785 2.28833C4.34802 2.2147 4.09865 2.22714 3.87664 2.32334L4.14169 2.93505C4.21569 2.90299 4.29881 2.89884 4.37564 2.92338L4.5785 2.28833ZM5.14653 2.66256C5.03749 2.57335 4.94322 2.496 4.8607 2.43721C4.77548 2.37649 4.68515 2.3224 4.5785 2.28833L4.37564 2.92338C4.38998 2.92796 4.41638 2.9392 4.47386 2.98016C4.53406 3.02305 4.60848 3.08372 4.72437 3.17853L5.14653 2.66256ZM5.14884 2.66448L5.14884 2.66447L4.72205 3.17662L4.72205 3.17662L5.14884 2.66448ZM5.80544 3.13773C5.79312 3.13608 5.74703 3.12455 5.62789 3.04174C5.5114 2.96078 5.36368 2.84024 5.14653 2.66256L4.72437 3.17853C4.93283 3.34909 5.10431 3.48972 5.24741 3.58917C5.38784 3.68677 5.54169 3.7749 5.71646 3.79844L5.80544 3.13773ZM6.11498 3.00952C6.04233 3.10477 5.92416 3.15372 5.80544 3.13773L5.71646 3.79844C6.07263 3.8464 6.42715 3.69956 6.64508 3.41379L6.11498 3.00952ZM6.24488 2.20774C6.21697 2.48688 6.19776 2.67654 6.17264 2.81612C6.14695 2.9589 6.12252 2.99963 6.11498 3.00952L6.64508 3.41379C6.75201 3.27357 6.79849 3.10248 6.82877 2.93418C6.85963 2.7627 6.88145 2.54203 6.90824 2.27408L6.24488 2.20774ZM6.24323 2.24091V2.24091H6.9099V2.24091H6.24323ZM6.38184 1.54175C6.33055 1.64122 6.30494 1.7433 6.28762 1.84645C6.27085 1.94633 6.2589 2.06763 6.24488 2.20774L6.90824 2.27408C6.92313 2.12516 6.93286 2.02968 6.94509 1.95683C6.95677 1.88726 6.96748 1.86066 6.97438 1.84728L6.38184 1.54175ZM6.90306 1.07005C6.67796 1.15902 6.49277 1.32662 6.38184 1.54174L6.97438 1.84728C7.01135 1.77557 7.07308 1.7197 7.14812 1.69004L6.90306 1.07005ZM7.57938 1.00004C7.43857 1.00004 7.31668 0.999868 7.21563 1.00662C7.11127 1.01358 7.00714 1.02891 6.90306 1.07005L7.14812 1.69004C7.16212 1.68451 7.18965 1.6765 7.26004 1.6718C7.33375 1.66688 7.42972 1.66671 7.57938 1.66671V1.00004ZM8.42192 1.00004H7.57938V1.66671H8.42192V1.00004ZM9.09825 1.07005C8.99416 1.02891 8.89004 1.01358 8.78567 1.00662C8.68462 0.999868 8.56273 1.00004 8.42192 1.00004V1.66671C8.57158 1.66671 8.66755 1.66688 8.74126 1.6718C8.81165 1.6765 8.83919 1.68451 8.85319 1.69004L9.09825 1.07005ZM9.61946 1.54174C9.50853 1.32661 9.32334 1.15902 9.09825 1.07005L8.85319 1.69004C8.92822 1.7197 8.98995 1.77557 9.02692 1.84727L9.61946 1.54174ZM10.3337 8.00002C10.3337 9.28868 9.28899 10.3334 8.00033 10.3334V11C9.65718 11 11.0003 9.65687 11.0003 8.00002H10.3337ZM8.00033 5.66669C9.28899 5.66669 10.3337 6.71136 10.3337 8.00002H11.0003C11.0003 6.34317 9.65718 5.00002 8.00033 5.00002V5.66669ZM5.66699 8.00002C5.66699 6.71136 6.71166 5.66669 8.00033 5.66669V5.00002C6.34347 5.00002 5.00033 6.34317 5.00033 8.00002H5.66699ZM8.00033 10.3334C6.71166 10.3334 5.66699 9.28868 5.66699 8.00002H5.00033C5.00033 9.65687 6.34347 11 8.00033 11V10.3334Z" fill="#222222"/>
</svg>
