<svg width="16" height="16" viewBox="0 0 16 16" fill="none" xmlns="http://www.w3.org/2000/svg">
<path d="M5.33301 12.6188C6.14378 13.0869 7.06348 13.3334 7.99967 13.3334C8.93587 13.3334 9.85557 13.0869 10.6663 12.6188C11.4771 12.1507 12.1504 11.4775 12.6185 10.6667C13.0866 9.85592 13.333 8.93622 13.333 8.00002C13.333 7.06382 13.0866 6.14412 12.6185 5.33335C12.1504 4.52258 11.4771 3.84932 10.6663 3.38122C9.85557 2.91312 8.93587 2.66669 7.99968 2.66669C7.06348 2.66669 6.14378 2.91312 5.33301 3.38122" stroke="#FF4500"/>
<path d="M1.33301 8.00002L0.942573 7.68767L0.692695 8.00002L0.942573 8.31237L1.33301 8.00002ZM7.33301 8.50002C7.60915 8.50002 7.83301 8.27616 7.83301 8.00002C7.83301 7.72388 7.60915 7.50002 7.33301 7.50002V8.50002ZM3.60924 4.35434L0.942573 7.68767L1.72344 8.31237L4.39011 4.97903L3.60924 4.35434ZM0.942573 8.31237L3.60924 11.6457L4.39011 11.021L1.72344 7.68767L0.942573 8.31237ZM1.33301 8.50002H7.33301V7.50002H1.33301V8.50002Z" fill="#FF4500"/>
</svg>
