<svg width="64" height="64" viewBox="0 0 64 64" fill="none" xmlns="http://www.w3.org/2000/svg">
<circle cx="32" cy="32" r="32" fill="#111111"/>
<path d="M31.1469 57.5997C41.9865 57.5997 50.7738 48.5096 50.7738 37.2964C50.7738 26.0832 41.9865 16.993 31.1469 16.993C20.3073 16.993 11.52 26.0832 11.52 37.2964C11.52 48.5096 20.3073 57.5997 31.1469 57.5997Z" fill="#FFE4B8"/>
<path d="M33.7068 29.3516V31.1171H30.2935V29.3516C30.2935 28.8834 30.4733 28.4343 30.7933 28.1032C31.1134 27.7721 31.5475 27.5861 32.0001 27.5861C32.4528 27.5861 32.8869 27.7721 33.207 28.1032C33.527 28.4343 33.7068 28.8834 33.7068 29.3516Z" fill="#FFE8DC"/>
<path d="M33.7067 31.9999H30.2933C30.067 31.9999 29.8499 31.9069 29.6899 31.7413C29.5298 31.5758 29.4399 31.3512 29.4399 31.1171V29.3516C29.4399 27.8913 30.5883 26.7033 32 26.7033C33.4116 26.7033 34.56 27.8913 34.56 29.3516V31.1171C34.56 31.3512 34.4701 31.5758 34.3101 31.7413C34.15 31.9069 33.933 31.9999 33.7067 31.9999ZM31.1466 30.2344H32.8533V29.3516C32.8533 28.865 32.4704 28.4688 32 28.4688C31.5296 28.4688 31.1466 28.865 31.1466 29.3516V30.2344Z" fill="#4C241D"/>
<path d="M22.6132 35.5309H17.4932V34.051C17.4932 33.507 17.7021 32.9853 18.0739 32.6006C18.4457 32.216 18.95 31.9999 19.4759 31.9999H26.0266C26.0266 33.9501 24.4985 35.5309 22.6132 35.5309Z" fill="#FFCE56"/>
<path d="M22.6135 36.4137H17.4935C17.2672 36.4137 17.0501 36.3206 16.8901 36.1551C16.73 35.9896 16.6401 35.765 16.6401 35.5309V34.0507C16.6401 32.4331 17.9123 31.1171 19.476 31.1171H26.0269C26.2532 31.1171 26.4703 31.2101 26.6303 31.3757C26.7903 31.5412 26.8802 31.7658 26.8802 31.9999C26.8802 34.4334 24.966 36.4137 22.6135 36.4137ZM18.3468 34.6481H22.6135C23.7261 34.6481 24.6752 33.9102 25.0272 32.8826H19.476C19.1766 32.883 18.8897 33.0062 18.678 33.2252C18.4663 33.4442 18.3472 33.7411 18.3468 34.0507V34.6481Z" fill="#4C241D"/>
<path d="M24.3199 43.4757H21.0676C19.0936 43.4757 17.4932 41.8201 17.4932 39.778V35.5309H24.3199V43.4757Z" fill="#FFDED5"/>
<path d="M24.3202 44.3584H21.0681C18.6265 44.3584 16.6401 42.3036 16.6401 39.7778V35.5309C16.6401 35.2968 16.73 35.0722 16.8901 34.9067C17.0501 34.7411 17.2672 34.6481 17.4935 34.6481H24.3202C24.5465 34.6481 24.7636 34.7411 24.9236 34.9067C25.0837 35.0722 25.1736 35.2968 25.1736 35.5309V43.4757C25.1736 43.7098 25.0837 43.9343 24.9236 44.0999C24.7636 44.2654 24.5465 44.3584 24.3202 44.3584ZM18.3468 36.4136V39.7778C18.3468 41.3299 19.5677 42.5929 21.0681 42.5929H23.4669V36.4136H18.3468Z" fill="#4C241D"/>
<path d="M8.95996 29.3516V31.1171H12.3733V29.3516C12.3733 28.8834 12.1935 28.4343 11.8735 28.1032C11.5534 27.7721 11.1193 27.5861 10.6666 27.5861C10.214 27.5861 9.7799 27.7721 9.45984 28.1032C9.13977 28.4343 8.95996 28.8834 8.95996 29.3516Z" fill="#FFE8DC"/>
<path d="M12.3732 31.9999H8.95979C8.73347 31.9999 8.51642 31.9069 8.35638 31.7413C8.19635 31.5758 8.10645 31.3512 8.10645 31.1171V29.3516C8.10645 27.8913 9.25483 26.7033 10.6665 26.7033C12.0781 26.7033 13.2265 27.8913 13.2265 29.3516V31.1171C13.2265 31.3512 13.1366 31.5758 12.9766 31.7413C12.8165 31.9069 12.5995 31.9999 12.3732 31.9999ZM9.81313 30.2344H11.5198V29.3516C11.5198 28.865 11.1369 28.4688 10.6665 28.4688C10.1961 28.4688 9.81313 28.865 9.81313 29.3516V30.2344Z" fill="#4C241D"/>
<path d="M26.0268 56.717L26.8802 47.0067L33.1241 41.2734C33.3071 41.1077 33.4538 40.9034 33.5543 40.6742C33.6548 40.4451 33.7068 40.1963 33.7069 39.9447V31.1171H30.2935V39.1434L25.5073 43.4757H17.1595L12.3733 39.1434V31.1171H8.95996V39.9447C8.95995 40.1963 9.01195 40.4451 9.11247 40.6743C9.21299 40.9034 9.35971 41.1077 9.54279 41.2734L15.7867 47.0067L16.64 56.717" fill="#9DC1E4"/>
<path d="M26.0275 57.5997C25.9089 57.5998 25.7915 57.5743 25.6829 57.5248C25.5744 57.4754 25.4769 57.4031 25.3969 57.3125C25.3169 57.2219 25.2559 57.1151 25.218 56.9988C25.1801 56.8825 25.166 56.7593 25.1767 56.6371L26.03 46.9268C26.05 46.7031 26.1512 46.4956 26.3134 46.3462L32.5573 40.6129C32.6501 40.53 32.7246 40.4274 32.7757 40.312C32.8269 40.1967 32.8534 40.0713 32.8536 39.9444V31.9996H31.1469V39.1431C31.1469 39.3978 31.0407 39.6397 30.8557 39.8074L26.0693 44.1397C25.9137 44.2806 25.7139 44.3582 25.5072 44.3582H17.1596C16.9528 44.3581 16.7531 44.2805 16.5974 44.1397L11.811 39.8074C11.7195 39.7245 11.6462 39.6224 11.596 39.5078C11.5458 39.3933 11.5198 39.2689 11.5198 39.1431V31.9999H9.81313V39.9447C9.81313 40.1993 9.91937 40.4416 10.1048 40.6094L16.3531 46.3464C16.5153 46.4958 16.6165 46.7033 16.6365 46.927L17.4898 56.6373C17.5101 56.8705 17.4401 57.1025 17.2952 57.2823C17.1503 57.4622 16.9423 57.5752 16.7169 57.5964C16.2518 57.6381 15.8326 57.2826 15.7897 56.7969L14.9673 47.4348L8.976 41.9339C8.70263 41.6854 8.48366 41.3794 8.33371 41.0364C8.18376 40.6933 8.10628 40.3211 8.10645 39.9447V31.1171C8.10645 30.883 8.19635 30.6585 8.35638 30.4929C8.51642 30.3274 8.73347 30.2344 8.95979 30.2344H12.3732C12.5995 30.2344 12.8165 30.3274 12.9766 30.4929C13.1366 30.6585 13.2265 30.883 13.2265 31.1171V38.743L17.4802 42.5929H25.1861L29.44 38.743V31.1171C29.44 30.883 29.5299 30.6585 29.6899 30.4929C29.85 30.3274 30.067 30.2344 30.2933 30.2344H33.7067C33.933 30.2344 34.1501 30.3274 34.3101 30.4929C34.4702 30.6585 34.5601 30.883 34.5601 31.1171V39.9447C34.5601 40.3221 34.4821 40.6952 34.3313 41.039C34.1805 41.3827 33.9604 41.6891 33.6858 41.9377L27.6992 47.4346L26.8768 56.7967C26.8575 57.0159 26.7597 57.2199 26.6026 57.3684C26.4454 57.517 26.2404 57.5995 26.0275 57.5997Z" fill="#4C241D"/>
<path d="M55.0403 29.3516V31.1171H51.627V29.3516C51.627 28.8834 51.8068 28.4343 52.1268 28.1032C52.4469 27.7721 52.881 27.5861 53.3336 27.5861C53.7863 27.5861 54.2204 27.7721 54.5404 28.1032C54.8605 28.4343 55.0403 28.8834 55.0403 29.3516Z" fill="#FFE8DC"/>
<path d="M55.0406 31.9999H51.6273C51.4009 31.9999 51.1839 31.9069 51.0239 31.7413C50.8638 31.5758 50.7739 31.3512 50.7739 31.1171V29.3516C50.7739 27.8913 51.9223 26.7033 53.334 26.7033C54.7456 26.7033 55.894 27.8913 55.894 29.3516V31.1171C55.894 31.3512 55.8041 31.5758 55.644 31.7413C55.484 31.9069 55.267 31.9999 55.0406 31.9999ZM52.4806 30.2344H54.1873V29.3516C54.1873 28.865 53.8044 28.4688 53.334 28.4688C52.8635 28.4688 52.4806 28.865 52.4806 29.3516V30.2344Z" fill="#4C241D"/>
<path d="M47.3603 56.717L48.2136 47.0067L54.4576 41.2734C54.6406 41.1077 54.7873 40.9034 54.8878 40.6742C54.9883 40.4451 55.0403 40.1963 55.0404 39.9447V31.1171H51.627V39.1434L46.8408 43.4757H38.493L33.7068 39.1434V31.1171H30.2935V39.9447C30.2934 40.1963 30.3454 40.4451 30.446 40.6743C30.5465 40.9034 30.6932 41.1077 30.8763 41.2734L37.1202 47.0067L37.9735 56.717" fill="#FC8C29"/>
<path d="M47.361 57.5997C47.2424 57.5998 47.125 57.5743 47.0164 57.5248C46.9079 57.4754 46.8104 57.4031 46.7304 57.3125C46.6503 57.2219 46.5894 57.1151 46.5515 56.9988C46.5136 56.8825 46.4995 56.7593 46.5102 56.6371L47.3635 46.9268C47.3835 46.7031 47.4847 46.4956 47.6469 46.3462L53.8908 40.6129C53.9836 40.53 54.0581 40.4274 54.1092 40.312C54.1604 40.1967 54.1869 40.0713 54.1871 39.9444V31.9996H52.4804V39.1431C52.4804 39.3978 52.3742 39.6397 52.1892 39.8074L47.4028 44.1397C47.2472 44.2806 47.0474 44.3582 46.8407 44.3582H38.4931C38.2863 44.3581 38.0866 44.2805 37.9309 44.1397L33.1445 39.8074C33.053 39.7245 32.9797 39.6224 32.9295 39.5078C32.8793 39.3933 32.8533 39.2689 32.8533 39.1431V31.9999H31.1466V39.9447C31.1466 40.1993 31.2529 40.4416 31.4383 40.6094L37.6866 46.3464C37.8488 46.4958 37.95 46.7033 37.97 46.927L38.8233 56.6373C38.8436 56.8705 38.7736 57.1025 38.6287 57.2823C38.4838 57.4622 38.2758 57.5752 38.0504 57.5964C37.825 57.6174 37.6007 57.545 37.4269 57.3951C37.2531 57.2452 37.1438 57.03 37.1232 56.7969L36.3008 47.4348L30.3095 41.9339C30.0361 41.6854 29.8172 41.3794 29.6672 41.0364C29.5173 40.6933 29.4398 40.3211 29.4399 39.9447V31.1171C29.4399 30.883 29.5298 30.6585 29.6899 30.4929C29.8499 30.3274 30.067 30.2344 30.2933 30.2344H33.7067C33.933 30.2344 34.15 30.3274 34.3101 30.4929C34.4701 30.6585 34.56 30.883 34.56 31.1171V38.743L38.8137 42.5929H46.5196L50.7735 38.743V31.1171C50.7735 30.883 50.8634 30.6585 51.0234 30.4929C51.1835 30.3274 51.4005 30.2344 51.6268 30.2344H55.0402C55.2665 30.2344 55.4836 30.3274 55.6436 30.4929C55.8037 30.6585 55.8936 30.883 55.8936 31.1171V39.9447C55.8936 40.3221 55.8156 40.6952 55.6648 41.039C55.514 41.3827 55.2939 41.6891 55.0193 41.9377L49.0327 47.4346L48.2103 56.7967C48.191 57.0159 48.0932 57.2199 47.9361 57.3684C47.7789 57.517 47.5738 57.5995 47.361 57.5997Z" fill="#4C241D"/>
<path d="M45.6539 43.4757H42.683C40.5535 43.4757 38.8271 41.6899 38.8271 39.487V37.2964C38.8271 35.3462 40.3553 33.7654 42.2405 33.7654C44.1258 33.7654 45.6539 35.3462 45.6539 37.2964V43.4757Z" fill="#FFDED5"/>
<path d="M45.6537 44.3584H42.6827C40.086 44.3584 37.9736 42.1732 37.9736 39.4869V37.2964C37.9736 34.8629 39.8878 32.8826 42.2403 32.8826C44.5927 32.8826 46.507 34.8629 46.507 37.2964V43.4757C46.507 43.7098 46.4171 43.9343 46.2571 44.0999C46.097 44.2654 45.88 44.3584 45.6537 44.3584ZM42.2403 34.6481C40.8286 34.6481 39.6803 35.8361 39.6803 37.2964V39.4869C39.6803 41.1995 41.0273 42.5929 42.6827 42.5929H44.8003V37.2964C44.8003 35.8361 43.6519 34.6481 42.2403 34.6481ZM32.0002 17.8758C20.3075 17.8758 10.1521 16.0275 6.72951 13.2762C6.55083 13.1325 6.43465 12.9213 6.40652 12.689C6.37839 12.4567 6.44063 12.2223 6.57953 12.0375C6.64817 11.9458 6.73365 11.869 6.83105 11.8115C6.92844 11.754 7.03585 11.717 7.14711 11.7026C7.25837 11.6882 7.37128 11.6967 7.47937 11.7275C7.58746 11.7583 7.6886 11.811 7.77699 11.8823C10.8738 14.3715 20.8346 16.1103 32.0002 16.1103C43.1657 16.1103 53.1266 14.3715 56.2234 11.8823C56.4021 11.7389 56.6285 11.6747 56.853 11.7039C57.0774 11.733 57.2814 11.8532 57.4203 12.0379C57.5591 12.2227 57.6213 12.4569 57.5933 12.6891C57.5653 12.9213 57.4493 13.1324 57.2708 13.2762C53.8483 16.0275 43.6929 17.8758 32.0002 17.8758Z" fill="#4C241D"/>
<path d="M11.6235 21.4364L10.0625 12.7368L16.7141 14.326L11.6235 21.4364Z" fill="#BD53B5"/>
<path d="M11.6231 22.3189C11.4238 22.3189 11.2308 22.2468 11.0775 22.115C10.9243 21.9831 10.8205 21.8 10.7841 21.5973L9.22331 12.8977C9.19746 12.7537 9.2067 12.6052 9.2502 12.4658C9.2937 12.3263 9.3701 12.2003 9.47249 12.0991C9.57445 11.9973 9.69948 11.9235 9.83612 11.8847C9.97275 11.8458 10.1166 11.843 10.2546 11.8766L16.9064 13.4658C17.0444 13.4987 17.1723 13.5667 17.2785 13.6635C17.3848 13.7604 17.4661 13.8831 17.5151 14.0205C17.5641 14.158 17.5793 14.3059 17.5592 14.4509C17.5392 14.5959 17.4845 14.7335 17.4003 14.8513L12.3094 21.9616C12.2299 22.0724 12.1264 22.1624 12.0072 22.2244C11.888 22.2865 11.7565 22.3188 11.6231 22.3189ZM11.1391 13.8999L12.1044 19.2809L15.2532 14.8826L11.1391 13.8999Z" fill="#4C241D"/>
<path d="M53.6469 21.2987L54.411 12.4859L47.9331 14.7144L53.6469 21.2987Z" fill="#9DC1E4"/>
<path d="M53.6472 22.1814C53.5274 22.1814 53.4089 22.1552 53.2995 22.1048C53.1901 22.0543 53.0922 21.9805 53.0121 21.8884L47.2983 15.3043C47.2038 15.1953 47.1369 15.0637 47.1038 14.9213C47.0706 14.7789 47.0723 14.6302 47.1086 14.4886C47.1448 14.347 47.2146 14.217 47.3116 14.1102C47.4085 14.0035 47.5296 13.9234 47.664 13.8772L54.1415 11.6482C54.2758 11.6021 54.4192 11.5912 54.5586 11.6166C54.698 11.6419 54.8291 11.7027 54.9402 11.7934C55.0512 11.8844 55.1386 12.0025 55.1945 12.1371C55.2505 12.2717 55.2732 12.4186 55.2607 12.5645L54.4969 21.3775C54.4779 21.597 54.3801 21.8013 54.2229 21.9501C54.0657 22.0989 53.8603 22.1814 53.6472 22.1814ZM49.4379 15.1271L52.972 19.1995L53.4445 13.7487L49.4379 15.1271Z" fill="#4C241D"/>
<path d="M22.6631 23.5594L19.6724 15.2697L26.4893 15.646L22.6631 23.5594Z" fill="#A9BA5A"/>
<path d="M22.6629 24.4422C22.4889 24.4422 22.3191 24.3873 22.1762 24.2846C22.0332 24.182 21.9241 24.0366 21.8633 23.8679L18.8726 15.5784C18.8232 15.4412 18.8075 15.2934 18.827 15.1483C18.8464 15.0032 18.9005 14.8655 18.9841 14.7473C19.1546 14.5077 19.4332 14.3757 19.7176 14.3883L26.5347 14.7645C26.6761 14.7723 26.8135 14.8164 26.9343 14.8928C27.0551 14.9692 27.1557 15.0755 27.2269 15.2021C27.2981 15.3287 27.3378 15.4716 27.3422 15.6181C27.3467 15.7645 27.3159 15.9097 27.2526 16.0408L23.4262 23.954C23.3553 24.1007 23.2464 24.224 23.1116 24.3102C22.9768 24.3964 22.8214 24.4421 22.6629 24.4422ZM20.9268 16.2233L22.7768 21.3503L25.1436 16.4559L20.9268 16.2233Z" fill="#4C241D"/>
<path d="M42.0112 23.5583L38.1592 15.6583L44.9748 15.2584L42.0112 23.5583Z" fill="#F4AEAB"/>
<path d="M42.0113 24.4413C41.8534 24.4412 41.6985 24.3958 41.5639 24.3102C41.4294 24.2245 41.3205 24.1019 41.2493 23.956L37.3971 16.0556C37.3333 15.9248 37.302 15.7796 37.306 15.6331C37.31 15.4867 37.3492 15.3436 37.4199 15.2167C37.4907 15.0898 37.591 14.9832 37.7115 14.9063C37.8321 14.8295 37.9693 14.785 38.1107 14.7767L44.9266 14.3768C45.2208 14.366 45.49 14.4944 45.6611 14.7332C45.7452 14.8511 45.7997 14.9888 45.8196 15.1338C45.8395 15.2789 45.8243 15.4268 45.7752 15.5643L42.8113 23.8646C42.7509 24.0338 42.6419 24.1797 42.4988 24.2828C42.3558 24.3859 42.1857 24.4412 42.0113 24.4413ZM39.5074 16.4634L41.8899 21.3501L43.7234 16.216L39.5074 16.4634Z" fill="#4C241D"/>
<path d="M32.427 24.2232L29.0137 16.1103H35.8404L32.427 24.2232Z" fill="#FFEC95"/>
<path d="M32.4268 25.106C32.2605 25.1061 32.0979 25.0559 31.9589 24.9616C31.8199 24.8674 31.7105 24.7332 31.6442 24.5755L28.2309 16.4625C28.1745 16.3282 28.1512 16.1814 28.1632 16.0355C28.1752 15.8895 28.2221 15.7489 28.2996 15.6263C28.3773 15.5039 28.4832 15.4033 28.6078 15.3337C28.7324 15.2641 28.8718 15.2276 29.0134 15.2275H35.8401C36.1277 15.2275 36.3959 15.3776 36.5539 15.6263C36.6314 15.7489 36.6783 15.8895 36.6903 16.0355C36.7023 16.1814 36.679 16.3282 36.6226 16.4625L33.2093 24.5755C33.143 24.7331 33.0336 24.8673 32.8946 24.9616C32.7556 25.0558 32.593 25.106 32.4268 25.106ZM30.3156 16.993L32.4268 22.0111L34.5379 16.993H30.3156Z" fill="#4C241D"/>
<path d="M39.6801 7.28275C39.6801 7.51687 39.5902 7.7414 39.4301 7.90695C39.2701 8.0725 39.053 8.1655 38.8267 8.1655C38.6004 8.1655 38.3834 8.0725 38.2233 7.90695C38.0633 7.7414 37.9734 7.51687 37.9734 7.28275C37.9734 7.04863 38.0633 6.8241 38.2233 6.65855C38.3834 6.493 38.6004 6.39999 38.8267 6.39999C39.053 6.39999 39.2701 6.493 39.4301 6.65855C39.5902 6.8241 39.6801 7.04863 39.6801 7.28275ZM47.3601 26.7033C47.3601 26.9375 47.2702 27.162 47.1102 27.3275C46.9502 27.4931 46.7331 27.5861 46.5068 27.5861C46.2805 27.5861 46.0634 27.4931 45.9034 27.3275C45.7434 27.162 45.6535 26.9375 45.6535 26.7033C45.6535 26.4692 45.7434 26.2447 45.9034 26.0791C46.0634 25.9136 46.2805 25.8206 46.5068 25.8206C46.7331 25.8206 46.9502 25.9136 47.1102 26.0791C47.2702 26.2447 47.3601 26.4692 47.3601 26.7033ZM19.1998 24.0551C19.1998 24.2892 19.1099 24.5137 18.9499 24.6793C18.7899 24.8448 18.5728 24.9378 18.3465 24.9378C18.1202 24.9378 17.9031 24.8448 17.7431 24.6793C17.5831 24.5137 17.4932 24.2892 17.4932 24.0551C17.4932 23.821 17.5831 23.5964 17.7431 23.4309C17.9031 23.2653 18.1202 23.1723 18.3465 23.1723C18.5728 23.1723 18.7899 23.2653 18.9499 23.4309C19.1099 23.5964 19.1998 23.821 19.1998 24.0551Z" fill="#4C241D"/>
</svg>
